# xmcd
#
# Track frame offsets:
#	150
#	21395
#	40952
#	59519
#	79639
#	100900
#	118793
#	141993
#	164345
#	186846
#
# Disc length: 2719 seconds
#
# Revision: 1
# Processed by: cddbd v1.5.2PL0 Copyright (c) Steve Scherf et al.
# Submitted via: EZCDAudioConverter 8.0.2.1
#
DISCID=8b0a9d0a
DTITLE=Various Artist - st. Minh Khang. 20 Năm Song Ca
DYEAR=2009
DGENRE=World Pop
TTITLE0=Đàm Vĩnh Hưng and Hồng Ngọc - Cuộc tình đã qua
TTITLE1=Đan Trường, Hồ Quỳnh Hương - Giấc mơ màu tím
TTITLE2=Phan Đình Tùng, Hoàng Châu - Yêu lại từ đầu
TTITLE3=Thanh Thảo, Kinh Luân - Thế giới cuối cùng
TTITLE4=Vân Quang Long and Thúy Hạnh - Trở về
TTITLE5=Thái Triệu Luân, Như Ý - Số phận bằng số không
TTITLE6=Tuấn Hưng, Kan Hee - Ngôi sao còn lại
TTITLE7=Song Giang, Hồng Ân - Học trò trường làng
TTITLE8=Gia Huy, Uyên Trang - Thiên đường cứu rỗi
TTITLE9=Minh Thuận, Phạm Thanh Thảo - Bạn thân
EXTD=
EXTT0=
EXTT1=
EXTT2=
EXTT3=
EXTT4=
EXTT5=
EXTT6=
EXTT7=
EXTT8=
EXTT9=
PLAYORDER=
